<?xml version="1.0" standalone="no"?>
<!DOCTYPE svg PUBLIC "-//W3C//DTD SVG 20010904//EN"
 "http://www.w3.org/TR/2001/REC-SVG-20010904/DTD/svg10.dtd">
<svg version="1.0" xmlns="http://www.w3.org/2000/svg"
 width="500.000000pt" height="500.000000pt" viewBox="0 0 500.000000 500.000000"
 preserveAspectRatio="xMidYMid meet">
<metadata>
Created by potrace 1.14, written by Peter Selinger 2001-2017
</metadata>
<g transform="translate(0.000000,500.000000) scale(0.100000,-0.100000)"
fill="#000000" stroke="none">
<path d="M2601 4736 c-14 -8 -31 -12 -38 -9 -7 3 -13 0 -13 -7 0 -9 -4 -9 -16
1 -14 11 -18 10 -30 -6 -8 -10 -14 -15 -14 -11 0 5 -8 2 -17 -5 -15 -12 -16
-12 -8 1 8 13 7 13 -9 1 -12 -10 -20 -11 -28 -3 -14 14 -38 4 -39 -17 0 -11
-2 -12 -6 -3 -4 10 -9 9 -20 -5 -8 -10 -12 -13 -9 -6 4 6 2 14 -4 18 -6 3 -13
-1 -16 -10 -6 -13 -8 -14 -15 -3 -6 9 -9 10 -9 1 0 -7 -7 -10 -17 -6 -10 4
-14 2 -10 -4 3 -5 0 -10 -8 -10 -8 0 -15 5 -15 11 0 6 -5 3 -11 -6 -5 -10 -16
-15 -24 -12 -9 4 -15 0 -15 -7 0 -12 -2 -12 -9 0 -6 9 -11 10 -15 2 -4 -6 -4
-11 0 -11 4 0 -11 -13 -34 -29 -22 -16 -43 -36 -48 -43 -4 -7 6 -2 21 12 l28
25 -19 -27 c-10 -15 -27 -29 -37 -32 -14 -3 -17 -10 -12 -27 6 -17 4 -21 -8
-16 -10 4 -14 0 -12 -11 1 -9 -6 -25 -17 -35 -10 -10 -15 -23 -12 -29 5 -7 2
-9 -8 -5 -12 4 -14 1 -11 -13 3 -10 -3 -23 -14 -31 -10 -8 -18 -24 -17 -37 1
-18 -1 -20 -13 -11 -11 9 -12 9 -7 -5 4 -9 1 -16 -6 -16 -7 0 -10 -8 -7 -20 3
-10 2 -19 -2 -18 -19 2 -24 -3 -11 -12 13 -8 12 -10 -3 -10 -10 0 -15 -5 -12
-11 8 -12 -23 -49 -41 -49 -8 0 -21 -12 -31 -27 -21 -34 -34 -44 -47 -36 -5 3
-6 1 -2 -5 4 -7 2 -12 -4 -12 -6 0 -8 -4 -5 -10 3 -5 2 -10 -4 -10 -6 0 -7 -7
-4 -17 4 -10 2 -14 -4 -10 -11 7 -26 -16 -28 -43 0 -8 -6 -14 -13 -13 -7 2 -9
-4 -5 -14 5 -12 3 -14 -8 -8 -12 7 -12 6 -1 -7 15 -18 0 -34 -20 -22 -6 4 -8
3 -5 -4 10 -15 -3 -43 -17 -35 -6 4 -5 -1 3 -10 12 -15 11 -17 -5 -17 -16 0
-17 -2 -4 -10 13 -8 12 -10 -3 -10 -11 0 -15 -4 -11 -12 4 -6 -1 -17 -11 -24
-10 -7 -15 -20 -12 -28 3 -8 -1 -20 -8 -26 -8 -7 -12 -16 -9 -22 3 -5 0 -15
-6 -23 -7 -8 -9 -15 -4 -15 5 0 2 -5 -6 -10 -11 -7 -11 -10 -2 -10 7 0 10 -5
7 -10 -4 -6 -10 -8 -14 -6 -4 3 -8 -1 -8 -9 0 -8 4 -15 9 -15 5 0 6 -5 3 -10
-4 -6 -10 -8 -14 -6 -4 3 -8 0 -8 -7 0 -7 -2 -19 -4 -27 -2 -8 2 -14 9 -12 9
1 7 -6 -4 -24 -15 -22 -15 -27 -3 -34 11 -7 10 -10 -4 -16 -9 -3 -17 -10 -17
-16 0 -5 4 -7 9 -3 5 3 13 1 16 -5 4 -6 1 -9 -6 -8 -6 2 -12 -7 -14 -19 -1
-13 -5 -26 -10 -30 -4 -5 -5 1 -1 12 6 17 5 18 -6 7 -11 -11 -9 -16 7 -28 19
-15 19 -15 -7 -10 -22 4 -26 1 -21 -12 6 -15 5 -16 -12 -2 -17 14 -18 14 -5
-10 13 -24 12 -24 -5 -10 -11 9 -16 10 -11 3 4 -8 2 -13 -4 -13 -6 0 -8 -4 -5
-10 3 -5 1 -10 -4 -10 -6 0 -11 6 -11 13 0 6 -5 4 -11 -6 -5 -9 -7 -23 -3 -30
6 -9 4 -9 -8 1 -13 10 -17 10 -22 -4 -3 -9 -4 -20 0 -25 3 -5 -2 -9 -11 -9
-12 0 -15 -5 -11 -16 4 -9 1 -24 -6 -32 -8 -9 -8 -13 -2 -9 7 4 17 1 23 -7 9
-11 9 -15 -1 -19 -8 -3 -8 -6 -2 -6 6 -1 16 5 22 12 10 12 12 17 12 38 0 5 4
8 9 5 5 -4 7 3 4 14 -3 12 0 20 6 20 7 0 9 5 5 13 -5 7 0 6 11 -3 10 -8 16
-10 12 -4 -4 7 0 15 9 18 8 3 12 10 9 16 -3 5 1 10 10 10 10 0 13 5 9 13 -4 7
-3 9 2 4 9 -9 10 -13 13 -43 0 -8 4 -13 9 -10 4 2 8 -9 8 -25 1 -18 -2 -26 -9
-22 -6 4 -8 0 -4 -10 4 -11 1 -17 -8 -17 -8 0 -12 -6 -9 -13 3 -9 -7 -12 -41
-11 -24 1 -42 -2 -39 -7 3 -5 -3 -9 -13 -10 -10 0 -13 -3 -5 -6 6 -2 12 -16
12 -29 0 -13 6 -24 13 -24 8 0 7 -4 -3 -10 -10 -6 -11 -10 -2 -10 6 0 11 -5
10 -12 -2 -7 2 -12 9 -13 6 0 15 -4 20 -8 4 -5 3 -8 -2 -7 -28 6 -34 0 -25
-24 5 -13 6 -27 3 -30 -4 -3 0 -6 7 -6 7 0 10 -3 7 -7 -4 -3 0 -14 9 -24 12
-13 12 -19 3 -25 -8 -5 -10 -3 -4 6 5 8 4 11 -3 6 -14 -9 -3 -38 12 -30 6 3 3
-1 -7 -9 -10 -9 -18 -18 -17 -22 1 -4 -1 -9 -4 -13 -3 -3 -6 0 -6 7 0 7 -5 9
-10 6 -6 -4 -7 -11 -4 -17 4 -5 -4 -4 -17 3 -23 12 -23 11 -9 -6 14 -17 14
-18 -9 -6 -15 8 -21 9 -17 2 4 -6 0 -11 -8 -11 -9 0 -16 -6 -16 -12 0 -9 -4
-8 -10 2 -8 12 -10 12 -10 1 0 -9 -7 -11 -21 -8 -17 5 -18 3 -7 -11 10 -12 10
-14 1 -8 -8 4 -13 2 -13 -6 0 -9 -3 -9 -10 2 -7 11 -10 11 -10 2 0 -7 -4 -10
-10 -7 -5 3 -10 1 -10 -5 0 -6 -4 -8 -10 -5 -5 3 -10 1 -10 -5 0 -7 -7 -7 -23
1 -20 11 -21 11 -8 -5 8 -9 11 -19 7 -23 -3 -3 -6 -2 -6 4 0 15 -28 12 -34 -4
-3 -7 -12 -13 -21 -13 -8 0 -15 -5 -15 -11 0 -7 -8 -18 -17 -26 -11 -9 -12
-12 -3 -7 8 4 5 -3 -7 -15 -27 -25 -31 -40 -6 -20 15 13 15 12 3 -8 -8 -13
-20 -19 -29 -15 -14 5 -14 4 -1 -13 12 -15 12 -17 1 -10 -11 6 -13 4 -8 -8 4
-12 1 -15 -14 -12 -18 4 -19 2 -7 -12 7 -9 8 -14 2 -10 -6 4 -19 -2 -29 -12
-9 -11 -25 -18 -36 -16 -11 2 -19 -2 -19 -10 0 -7 -7 -15 -15 -19 -9 -3 -12
-12 -8 -22 5 -13 3 -15 -8 -9 -12 7 -12 6 -1 -7 10 -13 10 -17 0 -20 -11 -4
-11 -8 0 -21 11 -13 10 -15 -10 -10 -13 3 -19 1 -13 -4 12 -10 16 -45 5 -38
-5 3 -10 -5 -12 -17 -2 -13 -8 -22 -14 -21 -6 1 -10 -9 -8 -23 1 -13 -2 -22
-7 -18 -8 5 -14 -18 -10 -40 1 -5 -6 -3 -15 5 -13 10 -16 10 -10 1 4 -7 2 -19
-4 -27 -6 -8 -8 -20 -4 -26 4 -8 3 -9 -4 -5 -19 12 -35 -4 -21 -20 6 -8 9 -17
5 -21 -3 -3 -6 -2 -6 4 0 5 -6 10 -14 10 -8 0 -12 -6 -9 -14 3 -7 0 -13 -6
-13 -18 0 -13 -18 6 -23 16 -4 16 -5 -1 -6 -12 -1 -16 -6 -12 -17 3 -8 2 -12
-3 -9 -5 3 -12 1 -16 -5 -3 -5 0 -10 7 -10 9 -1 8 -4 -3 -10 -10 -6 -15 -20
-14 -34 2 -14 -4 -31 -13 -38 -15 -12 -16 -11 -3 5 9 11 10 17 2 17 -12 0 -14
-10 -13 -48 1 -14 -3 -20 -10 -16 -6 4 -8 3 -5 -4 10 -16 -3 -42 -21 -42 -13
0 -12 -3 4 -15 10 -8 14 -14 9 -13 -6 2 -11 -1 -12 -6 0 -5 -8 -13 -17 -18 -9
-5 -16 -14 -16 -21 0 -7 4 -6 10 3 5 8 10 10 10 5 0 -6 -5 -16 -12 -23 -7 -7
-8 -12 -3 -12 5 0 0 -7 -11 -16 -10 -8 -13 -13 -7 -9 9 4 11 1 7 -9 -3 -9 -11
-13 -17 -9 -6 3 -7 1 -3 -5 4 -7 2 -12 -5 -12 -9 0 -9 -3 0 -14 9 -11 9 -16 0
-22 -8 -4 -9 -3 -5 4 4 7 5 12 2 12 -3 0 -10 -10 -17 -21 -9 -17 -8 -20 3 -13
11 7 11 5 0 -9 -8 -9 -10 -22 -6 -28 5 -8 3 -9 -6 -4 -10 6 -12 3 -8 -13 4
-15 2 -19 -8 -15 -10 3 -12 0 -8 -10 3 -8 0 -18 -7 -23 -8 -5 -10 -3 -4 6 5 8
4 11 -2 7 -5 -3 -8 -20 -7 -36 2 -26 -2 -31 -19 -31 -13 0 -17 -3 -11 -8 16
-10 13 -41 -3 -35 -9 4 -11 0 -7 -11 4 -9 1 -16 -6 -16 -9 0 -10 -3 -1 -14 9
-10 7 -17 -6 -27 -16 -13 -17 -12 -4 4 9 11 10 17 2 17 -11 0 -14 -9 -14 -42
0 -10 -7 -18 -15 -18 -8 0 -12 -3 -9 -7 4 -3 1 -13 -6 -21 -9 -13 -9 -14 0 -8
9 5 11 2 7 -9 -4 -9 -12 -14 -19 -12 -6 3 -12 -1 -12 -9 0 -7 4 -11 9 -8 8 5
-2 -28 -11 -36 -16 -13 -31 -52 -25 -62 5 -8 1 -9 -11 -4 -14 5 -16 4 -6 -8 9
-10 8 -15 -3 -19 -8 -3 -12 -15 -9 -31 4 -18 0 -28 -11 -32 -9 -3 -16 -10 -16
-16 0 -5 6 -6 12 -3 7 4 5 0 -5 -8 -19 -16 -24 -32 -5 -21 7 4 8 3 4 -4 -4 -7
-15 -12 -24 -13 -11 0 -13 -2 -4 -6 10 -4 9 -9 -5 -19 -17 -13 -17 -14 1 -7
13 4 17 3 12 -5 -4 -7 -15 -12 -24 -12 -13 0 -14 -2 -4 -8 7 -5 10 -16 6 -25
-3 -9 -9 -15 -14 -12 -4 2 -5 -11 -3 -30 2 -22 -1 -35 -8 -35 -6 0 -1 -9 12
-21 l24 -20 -25 12 c-24 12 -25 11 -7 -8 9 -11 14 -23 10 -27 -4 -4 3 -16 17
-28 18 -14 20 -18 6 -14 -13 5 -10 -3 13 -29 33 -38 39 -51 19 -39 -7 4 -4 -3
7 -16 11 -13 14 -20 8 -16 -9 5 -11 2 -7 -8 3 -9 11 -16 18 -16 6 0 3 -7 -7
-14 -17 -14 -24 -32 -8 -21 5 3 12 1 16 -5 3 -5 1 -10 -5 -10 -6 0 -8 -4 -5
-10 3 -5 0 -10 -7 -10 -10 0 -10 -2 1 -9 11 -7 11 -9 0 -14 -9 -3 -7 -6 5 -6
20 -1 20 -1 0 -17 -14 -12 -15 -14 -3 -11 13 4 15 1 12 -14 -3 -10 1 -27 8
-36 12 -14 12 -16 0 -8 -11 6 -11 3 2 -14 8 -13 13 -29 11 -36 -3 -7 5 -20 18
-29 15 -11 17 -16 8 -16 -12 -1 -11 -3 3 -11 9 -5 17 -17 17 -25 0 -8 4 -13 9
-10 5 3 8 -2 7 -12 0 -10 6 -17 15 -16 11 1 15 -6 13 -22 -1 -13 5 -29 14 -36
13 -11 14 -11 7 2 -8 13 -6 13 8 1 9 -7 14 -17 11 -22 -3 -5 2 -9 11 -9 10 0
13 -5 9 -12 -5 -8 -2 -9 10 -5 9 4 15 3 11 -2 -8 -14 6 -42 18 -34 6 4 8 0 4
-10 -3 -9 -1 -19 5 -23 7 -5 8 -2 4 7 -4 8 -1 6 7 -3 8 -10 16 -15 19 -13 3 3
11 -1 18 -10 7 -8 19 -15 27 -15 8 0 11 -4 8 -10 -4 -7 3 -7 20 0 15 6 24 6
20 1 -3 -5 -1 -12 5 -16 5 -3 10 -2 10 3 0 6 14 7 33 3 39 -9 67 -4 67 12 0 7
5 4 11 -6 5 -9 15 -17 20 -17 6 0 8 4 5 8 -7 11 56 2 72 -10 16 -13 16 4 0 22
-11 12 -10 12 4 1 10 -7 25 -11 33 -7 9 3 15 0 15 -10 0 -8 5 -12 10 -9 6 4 7
12 3 18 -4 7 0 6 10 -2 14 -11 17 -11 17 0 0 8 6 5 15 -7 9 -12 13 -13 10 -4
-4 11 1 16 14 16 11 0 18 -4 15 -8 -2 -3 8 -5 22 -2 16 3 31 0 35 -8 7 -10 9
-9 9 4 0 9 5 20 10 23 6 4 10 3 9 -2 -3 -20 2 -27 11 -13 8 12 10 12 11 -5 l0
-20 9 20 c5 11 9 15 9 8 1 -6 10 -9 23 -5 15 3 19 2 14 -7 -4 -6 -4 -11 1 -10
22 4 43 -2 38 -11 -3 -6 1 -7 9 -4 11 4 16 0 16 -12 0 -16 2 -17 10 -4 8 12
10 10 10 -8 0 -14 4 -20 10 -17 6 4 18 1 27 -7 12 -9 15 -9 9 0 -4 6 -3 12 3
12 5 0 12 -8 14 -17 4 -16 5 -15 6 1 1 20 1 20 16 0 9 -12 14 -14 15 -6 0 8 5
10 13 5 18 -11 36 -12 43 -2 8 14 26 0 17 -14 -3 -7 3 -3 15 7 17 14 22 16 22
5 0 -11 2 -11 10 1 8 12 10 12 10 1 0 -10 3 -11 14 -2 11 9 18 8 32 -6 17 -17
17 -17 11 0 -3 9 -2 17 3 17 6 0 10 -6 10 -12 0 -10 2 -10 9 0 6 11 12 10 26
-5 17 -17 18 -17 12 0 -7 19 8 24 16 5 4 -10 6 -10 6 -1 1 7 8 10 16 7 8 -4
12 -11 8 -17 -3 -6 -1 -7 6 -3 6 4 9 11 6 16 -3 5 4 8 15 7 14 -1 19 -6 15
-16 -4 -11 0 -10 15 4 12 11 20 13 20 6 0 -7 5 -9 10 -6 6 4 7 11 4 17 -4 7
-2 8 4 4 7 -4 12 -15 12 -24 0 -13 2 -13 16 4 8 10 13 13 9 7 -4 -9 -1 -11 9
-7 9 3 13 11 9 17 -3 6 -1 7 5 3 7 -4 12 -15 12 -24 0 -14 2 -14 9 -3 5 7 14
11 20 7 7 -5 9 -1 5 11 -5 17 -5 17 6 0 10 -15 14 -16 28 -5 13 11 14 11 7 -2
-8 -13 -7 -13 8 -1 15 12 17 11 18 -5 0 -11 3 -14 6 -6 2 6 9 10 14 6 5 -3 9
-2 9 3 0 4 13 8 29 8 16 1 27 -3 25 -7 -8 -12 11 -9 24 4 7 7 12 8 12 2 0 -5
9 -10 20 -11 13 -1 18 2 13 10 -4 7 0 6 10 -2 14 -11 17 -11 17 0 0 12 2 12 9
0 7 -11 10 -11 16 0 6 9 10 8 16 -7 7 -18 8 -18 8 1 1 17 3 18 11 5 6 -9 13
-11 18 -5 13 19 35 17 28 -2 -4 -13 0 -11 14 6 l20 23 1 -23 c0 -13 3 -18 6
-11 2 6 9 10 14 6 5 -3 9 1 9 8 0 9 3 9 10 -2 8 -12 11 -13 19 -1 6 9 11 10
15 2 4 -6 12 -11 17 -11 6 0 7 6 3 13 -5 8 -2 8 9 -2 11 -9 17 -10 17 -2 0 6
5 11 11 11 5 0 7 -6 3 -13 -5 -8 -2 -8 9 2 15 12 17 11 17 -5 0 -15 2 -16 9
-5 5 8 17 16 25 17 9 1 14 -2 10 -7 -7 -13 10 -11 23 2 8 8 13 8 17 0 4 -6 12
-11 17 -11 6 0 7 5 4 10 -3 6 -1 10 4 10 6 0 11 -5 11 -11 0 -8 5 -8 15 1 9 7
15 8 15 2 0 -12 18 -11 39 2 11 7 12 6 6 -5 -8 -12 -6 -12 8 0 15 12 17 11 18
-5 0 -11 3 -14 5 -7 3 7 12 9 21 6 12 -5 14 -3 8 8 -7 12 -6 12 7 1 13 -10 17
-10 21 0 4 9 6 9 6 -2 1 -13 2 -13 11 0 8 12 10 12 10 1 0 -10 3 -11 14 -2 10
9 16 9 21 1 5 -8 11 -7 23 2 13 11 15 10 9 -4 -4 -12 -2 -15 8 -11 8 3 13 8
10 12 -2 4 3 8 11 8 9 0 13 -6 9 -16 -3 -11 0 -10 10 3 11 14 15 16 15 5 0
-12 2 -12 9 0 7 11 9 11 14 0 5 -12 7 -12 15 0 8 11 10 11 15 0 4 -9 8 -10 14
-4 14 17 33 16 34 -3 0 -9 3 -12 5 -5 3 7 12 9 21 6 12 -5 14 -3 8 8 -8 12 -6
12 8 0 11 -9 17 -10 17 -2 0 6 5 11 11 11 5 0 7 -5 3 -12 -5 -7 -3 -8 6 -3 18
11 71 14 64 4 -3 -5 -1 -9 5 -9 5 0 13 5 17 11 4 8 9 7 15 -2 8 -12 11 -12 18
0 8 12 12 12 25 2 12 -11 16 -11 16 -1 0 9 4 9 17 -1 19 -16 23 -16 34 3 7 10
9 10 9 1 0 -7 5 -13 11 -13 5 0 7 6 3 13 -6 9 -5 9 7 0 12 -10 18 -10 29 0 10
10 12 8 6 -8 -6 -20 -6 -20 9 -1 11 14 15 16 15 5 0 -11 2 -12 9 0 6 9 11 10
15 2 4 -6 12 -9 17 -6 17 11 50 14 44 4 -4 -5 -2 -9 4 -9 5 0 13 5 17 11 4 8
9 7 15 -2 8 -12 11 -11 20 1 8 12 12 12 16 2 4 -10 8 -10 21 0 12 10 14 10 8
1 -4 -7 -3 -13 3 -13 5 0 12 6 14 13 4 9 6 9 6 -1 1 -8 6 -10 14 -5 23 14 39
12 32 -5 -5 -13 -2 -13 15 3 15 14 20 15 20 4 0 -11 2 -11 10 1 9 13 10 13 10
0 0 -13 1 -13 10 0 5 8 10 11 10 6 0 -6 7 -1 16 10 8 10 13 13 9 7 -3 -7 -1
-13 5 -13 6 0 16 11 22 25 9 19 14 22 25 14 11 -10 12 -8 7 7 -4 10 -4 16 1
12 4 -4 14 0 22 10 8 9 12 11 8 5 -3 -7 -1 -13 4 -13 6 0 11 5 11 11 0 7 10 9
25 7 14 -3 25 -1 25 4 0 5 5 6 10 3 6 -4 8 -12 4 -18 -3 -7 0 -5 8 3 14 16 36
19 56 7 6 -5 12 -4 12 1 0 5 12 7 28 5 34 -5 30 -5 133 -2 47 1 92 -2 99 -6 9
-5 11 -4 6 3 -4 7 -2 12 3 12 6 0 11 -5 11 -12 0 -6 7 -3 16 8 8 10 13 14 10
8 -3 -7 1 -15 10 -18 8 -3 12 -2 9 4 -3 6 -1 10 4 10 6 0 11 -5 11 -12 0 -6 7
-3 16 8 8 10 13 13 9 7 -4 -9 2 -13 20 -13 14 0 24 4 21 8 -2 4 5 8 17 9 12 0
16 -1 10 -4 -25 -9 -12 -20 19 -17 17 2 38 -2 46 -9 13 -10 14 -9 7 2 -6 11
-2 13 24 8 20 -4 30 -3 26 3 -3 6 1 7 9 4 9 -3 13 -11 9 -17 -3 -6 4 -3 16 5
12 9 30 14 41 11 10 -3 21 0 25 7 5 8 13 6 28 -7 16 -14 19 -15 15 -3 -4 11 0
16 13 16 12 0 18 -5 15 -13 -4 -9 1 -9 18 2 19 13 25 13 29 3 3 -8 6 -6 6 5 1
10 5 16 10 13 5 -3 14 0 19 7 9 10 3 12 -25 9 -21 -3 -33 -1 -30 5 8 13 -25
13 -40 0 -9 -6 -13 -6 -13 2 0 6 -5 11 -11 11 -5 0 -7 -5 -3 -12 4 -7 3 -8 -4
-4 -19 12 -53 16 -47 5 4 -5 1 -9 -4 -9 -6 0 -11 4 -11 9 0 5 -7 11 -14 14
-10 4 -13 1 -10 -8 4 -9 -1 -12 -13 -10 -10 1 -17 8 -15 15 1 6 -2 9 -8 5 -6
-3 -7 -11 -4 -17 4 -6 1 -9 -7 -6 -8 3 -13 14 -11 24 2 15 1 16 -7 4 -5 -8 -8
-17 -5 -21 2 -4 -1 -11 -7 -15 -7 -4 -9 -3 -5 4 3 6 1 14 -6 19 -7 4 -14 16
-14 25 -1 10 2 16 6 13 11 -7 41 35 34 47 -3 4 2 5 10 2 11 -4 14 0 11 16 -3
17 0 20 12 16 14 -6 14 -4 2 11 -8 9 -9 14 -4 11 6 -3 19 4 30 15 11 11 13 16
5 12 -12 -7 -13 -6 -3 7 7 8 9 19 5 23 -4 5 -1 4 7 0 11 -6 13 -4 8 9 -4 10
-3 15 3 11 6 -3 10 2 10 12 0 15 2 16 11 3 8 -12 9 -10 7 10 -2 14 2 24 7 23
6 -1 10 11 9 25 -1 17 7 34 20 45 11 10 15 16 9 12 -15 -7 -18 11 -4 20 6 3 8
14 6 25 -2 13 1 17 10 14 15 -6 15 20 0 33 -4 4 -5 2 0 -6 6 -10 4 -12 -5 -6
-10 6 -10 10 3 20 14 10 14 12 -1 23 -15 10 -15 11 3 5 18 -6 18 -5 6 10 -11
14 -11 17 0 17 11 0 11 2 -1 10 -13 9 -13 10 0 11 10 0 8 3 -5 9 -18 8 -18 9
-2 9 10 1 15 6 12 11 -4 6 -10 8 -14 5 -5 -2 -6 7 -3 22 4 20 2 24 -9 18 -12
-7 -12 -6 -1 7 9 11 10 18 2 23 -7 4 -7 13 1 27 8 15 8 19 0 14 -7 -4 -11 1
-11 13 0 10 6 22 13 25 6 3 2 3 -11 0 -20 -5 -21 -3 -12 21 5 14 6 24 1 21 -5
-3 -11 1 -15 9 -3 8 0 17 6 21 7 5 8 2 3 -6 -6 -9 -4 -11 4 -6 9 6 8 13 -5 27
-20 22 -29 73 -12 63 6 -4 3 4 -8 18 -10 14 -23 23 -29 20 -5 -3 -4 2 4 11 11
14 11 17 0 17 -12 0 -12 2 -1 9 11 7 11 9 -2 14 -11 4 -14 17 -12 42 1 20 -2
39 -7 42 -6 4 -7 1 -2 -7 6 -9 4 -11 -4 -6 -7 5 -10 15 -6 24 3 8 0 19 -6 23
-7 4 -14 16 -15 26 -1 10 -3 33 -5 51 -2 20 -8 31 -15 28 -8 -3 -10 3 -6 16 4
16 2 19 -9 13 -11 -6 -12 -5 -2 5 10 11 9 16 -5 26 -10 8 -12 13 -4 14 6 0 12
5 12 11 0 6 -6 9 -14 6 -10 -4 -12 0 -9 14 3 10 0 26 -7 34 -7 8 -10 22 -6 30
4 11 2 14 -6 9 -8 -5 -9 -2 -5 10 4 10 1 19 -9 23 -13 5 -13 7 -2 14 11 7 11
9 -1 9 -8 0 -11 6 -7 16 5 13 4 14 -7 6 -11 -9 -13 -8 -12 6 0 9 4 23 8 30 6
8 3 10 -9 5 -12 -4 -15 -3 -10 5 4 7 2 12 -6 12 -9 0 -9 3 2 10 12 8 10 10
-10 11 -17 1 -19 3 -8 6 16 4 15 7 -7 31 -13 14 -22 29 -19 34 3 4 -1 8 -8 8
-11 0 -10 2 0 9 11 6 10 10 -3 15 -14 5 -15 9 -6 20 9 11 9 16 0 22 -8 5 -10
3 -4 -7 6 -11 5 -12 -6 -1 -7 7 -14 25 -15 40 -1 15 -6 26 -11 25 -5 -1 -10 4
-10 12 0 8 3 12 7 10 4 -2 7 2 7 10 0 8 -4 12 -9 9 -4 -3 -8 4 -8 15 0 12 -4
21 -10 21 -5 0 -10 5 -10 11 0 5 6 7 13 3 6 -4 2 4 -11 18 -15 17 -20 28 -13
33 6 3 9 11 5 16 -3 5 -9 7 -14 4 -5 -3 -7 6 -4 21 3 19 1 24 -8 18 -10 -6
-10 -5 0 8 10 13 10 18 1 24 -8 5 -9 3 -4 -6 6 -9 4 -11 -5 -5 -10 6 -9 11 5
22 14 9 15 13 4 13 -12 0 -12 2 0 9 11 7 11 9 0 13 -12 4 -12 7 0 21 7 10 10
17 5 17 -5 0 -2 5 6 10 13 9 13 10 0 11 -8 1 -19 1 -23 0 -5 -1 -6 3 -2 9 3 6
12 7 18 3 8 -4 7 -1 -1 9 -9 12 -10 18 -2 23 8 5 5 12 -7 22 -17 14 -17 14 2
8 15 -5 12 2 -12 27 -18 19 -33 38 -33 43 0 6 5 2 11 -8 5 -9 15 -17 20 -17
14 0 -21 35 -35 35 -6 1 -10 7 -8 15 3 11 0 11 -12 1 -13 -11 -15 -9 -11 9 3
17 1 19 -8 11 -9 -7 -16 -4 -26 11 -7 11 -8 17 -2 13 6 -3 11 -1 11 4 0 10
-14 15 -33 12 -5 -1 -6 3 -2 9 3 6 12 8 18 4 7 -3 4 1 -5 9 -13 10 -15 16 -6
25 7 7 8 12 2 12 -5 0 -10 9 -10 19 0 11 4 18 8 15 4 -2 6 4 5 15 -1 15 -4 17
-14 10 -9 -8 -10 -4 -3 20 8 30 6 35 -14 32 -5 -1 -3 6 5 15 8 10 9 15 3 11
-7 -4 -17 5 -24 23 -7 16 -16 27 -21 24 -5 -3 -9 0 -9 7 0 16 -47 59 -55 50
-4 -3 -6 -1 -5 4 6 26 -1 37 -17 31 -10 -4 -14 -4 -11 0 4 3 0 13 -8 21 -8 8
-12 19 -8 24 3 5 2 9 -3 8 -25 -4 -43 2 -37 13 5 8 2 9 -9 5 -11 -4 -17 -1
-17 8 0 8 -5 15 -11 15 -5 0 -7 -4 -4 -10 3 -5 1 -10 -4 -10 -6 0 -11 5 -11
11 0 5 -6 7 -12 3 -10 -6 -10 -5 -1 8 11 13 9 15 -15 14 -15 -1 -35 7 -44 16
-10 10 -24 15 -33 12 -8 -4 -15 -1 -15 5 0 6 -9 11 -21 11 -13 0 -18 4 -13 13
5 8 2 8 -9 -2 -11 -9 -17 -10 -17 -2 0 6 -9 11 -21 11 -11 0 -17 4 -14 10 3 5
0 7 -8 4 -8 -3 -18 0 -22 5 -3 6 -11 8 -17 5 -7 -5 -9 -2 -6 8 5 11 0 14 -19
10 -18 -3 -24 -1 -19 7 4 6 2 11 -5 11 -21 0 -48 31 -42 48 4 9 2 13 -5 8 -6
-3 -14 -1 -18 5 -4 8 -3 9 4 5 7 -4 12 -2 12 3 0 6 -4 11 -10 11 -5 0 -10 16
-10 36 0 21 -4 33 -10 29 -5 -3 -10 -2 -10 4 0 5 6 12 13 15 8 3 6 9 -7 20
-11 9 -15 16 -8 16 8 0 9 7 2 24 -6 17 -5 26 3 30 7 2 4 5 -7 5 -18 1 -18 2 1
19 10 9 14 14 8 10 -20 -13 -26 4 -7 18 9 7 12 14 6 14 -7 0 -9 11 -6 25 2 15
9 22 16 18 6 -4 4 2 -4 12 -9 11 -10 16 -2 11 19 -11 14 5 -5 20 -16 12 -15
12 7 8 21 -5 22 -4 8 6 -10 6 -18 16 -18 21 0 6 4 8 8 5 5 -3 9 2 9 10 0 9 -6
13 -14 9 -11 -3 -13 1 -8 16 5 15 4 19 -4 15 -7 -5 -11 2 -11 18 0 13 -4 26
-9 28 -5 2 -11 10 -13 18 -2 8 -11 21 -21 29 -11 8 -17 21 -14 32 3 12 -3 26
-17 37 -12 9 -20 24 -18 33 1 9 -9 24 -23 33 -18 12 -25 24 -22 37 4 13 0 19
-11 19 -13 0 -14 2 -4 9 10 6 9 10 -7 14 -12 3 -21 9 -20 14 4 22 -2 44 -11
38 -5 -3 -7 0 -4 8 3 8 -2 17 -12 21 -14 5 -14 9 -3 23 10 12 10 14 2 9 -8 -4
-13 -1 -13 8 0 9 -4 16 -10 16 -5 0 -10 9 -10 21 0 13 -4 18 -12 13 -8 -5 -7
0 2 11 8 10 10 16 5 13 -6 -4 -16 2 -23 12 -9 16 -9 18 2 14 8 -3 17 0 21 6 3
6 1 9 -6 8 -6 -2 -14 3 -17 11 -3 9 0 11 8 6 10 -6 12 -4 7 8 -4 12 -1 17 10
17 12 0 13 3 4 14 -9 11 -6 13 16 10 16 -2 23 -1 16 2 -10 4 -10 8 0 19 7 7
15 11 19 9 4 -2 10 1 14 7 4 7 3 9 -3 6 -6 -4 -13 0 -16 8 -4 8 -1 12 6 9 8
-3 13 4 13 15 0 15 -3 17 -13 9 -10 -8 -13 -6 -14 8 -1 11 -1 22 0 26 0 4 -7
4 -16 1 -11 -4 -14 -3 -9 5 4 7 1 12 -8 12 -9 0 -21 9 -28 20 -7 11 -20 20
-28 20 -13 0 -13 1 0 10 12 8 11 10 -7 10 -13 0 -23 5 -23 11 0 8 -5 7 -15 -1
-13 -11 -14 -10 -9 4 7 19 -23 48 -43 41 -7 -2 -13 0 -13 6 0 14 -26 39 -40
39 -7 0 -9 7 -6 16 3 9 2 12 -5 9 -6 -4 -17 1 -25 11 -9 11 -13 13 -9 7 3 -7
1 -13 -4 -13 -11 0 -15 15 -11 35 1 6 -1 7 -5 4 -3 -4 -17 4 -31 18 -14 14
-29 21 -37 17 -9 -6 -9 -4 1 8 10 13 10 17 -3 22 -9 3 -14 2 -11 -2 3 -5 -1
-9 -8 -9 -8 0 -11 8 -8 19 3 12 -1 18 -13 18 -11 0 -15 5 -11 15 3 10 -3 17
-19 21 -16 4 -22 11 -18 22 4 10 2 13 -5 8 -7 -4 -12 -2 -12 4 0 6 -4 9 -9 6
-5 -3 -12 6 -15 20 -6 22 -9 24 -23 12 -15 -11 -16 -11 -10 5 4 11 3 16 -3 12
-6 -3 -10 0 -10 7 0 9 -3 9 -10 -2 -6 -9 -10 -11 -10 -3 0 8 -7 10 -17 6 -16
-6 -17 -5 -3 13 14 19 14 19 -8 0 -20 -17 -27 -15 -23 7 1 9 1 9 -28 -7z
m-181 -46 c0 -5 -5 -10 -11 -10 -5 0 -7 5 -4 10 3 6 8 10 11 10 2 0 4 -4 4
-10z m-310 -164 c0 -3 -4 -8 -10 -11 -5 -3 -10 -1 -10 4 0 6 5 11 10 11 6 0
10 -2 10 -4z m-677 -1286 c3 -11 1 -18 -4 -14 -5 3 -9 12 -9 20 0 20 7 17 13
-6z m1927 -12 c0 7 7 9 17 5 12 -5 13 -8 4 -11 -8 -3 -6 -9 8 -18 13 -9 19
-25 19 -45 -1 -16 -4 -26 -7 -21 -3 5 -14 8 -23 7 -11 -2 -15 2 -11 11 3 8 2
14 -3 13 -5 -1 -16 -1 -23 0 -12 1 -12 4 -3 13 9 9 7 15 -6 25 -9 8 -11 11 -3
7 11 -5 13 -3 7 11 -5 15 -4 16 9 5 10 -8 15 -9 15 -2z m-1869 -45 c13 -16 12
-17 -3 -4 -14 11 -18 11 -18 1 0 -8 -3 -11 -6 -7 -5 5 3 27 10 27 2 0 10 -8
17 -17z m3263 -3019 c5 -14 4 -15 -9 -4 -17 14 -19 20 -6 20 5 0 12 -7 15 -16z
m-264 -18 c0 -2 -7 -7 -16 -10 -8 -3 -12 -2 -9 4 6 10 25 14 25 6z"/>
<path d="M3380 3179 c0 -5 5 -7 10 -4 6 3 10 8 10 11 0 2 -4 4 -10 4 -5 0 -10
-5 -10 -11z"/>
<path d="M2150 4619 c0 -5 5 -7 10 -4 6 3 10 8 10 11 0 2 -4 4 -10 4 -5 0 -10
-5 -10 -11z"/>
<path d="M3320 3781 c0 -6 4 -13 10 -16 6 -3 7 1 4 9 -7 18 -14 21 -14 7z"/>
<path d="M3400 3641 c0 -6 4 -13 10 -16 6 -3 7 1 4 9 -7 18 -14 21 -14 7z"/>
<path d="M3525 3060 c3 -5 8 -10 11 -10 2 0 4 5 4 10 0 6 -5 10 -11 10 -5 0
-7 -4 -4 -10z"/>
<path d="M1035 2600 c-4 -6 -11 -7 -17 -4 -7 4 -8 2 -4 -5 6 -9 11 -9 22 0 14
11 18 19 10 19 -3 0 -8 -5 -11 -10z"/>
<path d="M4365 1860 c-3 -5 -1 -10 4 -10 6 0 11 5 11 10 0 6 -2 10 -4 10 -3 0
-8 -4 -11 -10z"/>
<path d="M4405 1761 c-6 -11 13 -26 22 -17 4 3 1 6 -6 6 -7 0 -9 5 -6 10 3 6
4 10 1 10 -3 0 -7 -4 -11 -9z"/>
<path d="M4688 503 c7 -3 16 -2 19 1 4 3 -2 6 -13 5 -11 0 -14 -3 -6 -6z"/>
<path d="M4665 131 c-3 -5 -1 -12 5 -16 5 -3 10 1 10 9 0 18 -6 21 -15 7z"/>
</g>
</svg>
